<?xml version="1.0" encoding="UTF-8" standalone="no"?>
<!-- Created with Inkscape (http://www.inkscape.org/) -->

<svg
   xmlns:osb="http://www.openswatchbook.org/uri/2009/osb"
   xmlns:dc="http://purl.org/dc/elements/1.1/"
   xmlns:cc="http://creativecommons.org/ns#"
   xmlns:rdf="http://www.w3.org/1999/02/22-rdf-syntax-ns#"
   xmlns:svg="http://www.w3.org/2000/svg"
   xmlns="http://www.w3.org/2000/svg"
   xmlns:xlink="http://www.w3.org/1999/xlink"
   xmlns:sodipodi="http://sodipodi.sourceforge.net/DTD/sodipodi-0.dtd"
   xmlns:inkscape="http://www.inkscape.org/namespaces/inkscape"
   width="718"
   height="256"
   id="svg2"
   version="1.1"
   inkscape:version="0.48.4 r9939"
   sodipodi:docname="New document 1">
  <defs
     id="defs4">
    <linearGradient
       id="linearGradient5314">
      <stop
         style="stop-color:#0aa661;stop-opacity:1;"
         offset="0"
         id="stop5316" />
      <stop
         style="stop-color:#00914c;stop-opacity:1;"
         offset="1"
         id="stop5318" />
    </linearGradient>
    <linearGradient
       id="linearGradient5306">
      <stop
         style="stop-color:#ffbf19;stop-opacity:1;"
         offset="0"
         id="stop5308" />
      <stop
         style="stop-color:#ffb300;stop-opacity:1;"
         offset="1"
         id="stop5310" />
    </linearGradient>
    <linearGradient
       inkscape:collect="always"
       id="linearGradient5298">
      <stop
         style="stop-color:#ff0000;stop-opacity:1;"
         offset="0"
         id="stop5300" />
      <stop
         style="stop-color:#ff0000;stop-opacity:0;"
         offset="1"
         id="stop5302" />
    </linearGradient>
    <linearGradient
       id="linearGradient5288">
      <stop
         style="stop-color:#dd5442;stop-opacity:1;"
         offset="0"
         id="stop5290" />
      <stop
         style="stop-color:#dd180a;stop-opacity:1;"
         offset="1"
         id="stop5292" />
    </linearGradient>
    <linearGradient
       id="linearGradient5272">
      <stop
         style="stop-color:#186dee;stop-opacity:1;"
         offset="0"
         id="stop5274" />
      <stop
         style="stop-color:#182eee;stop-opacity:1;"
         offset="1"
         id="stop5276" />
    </linearGradient>
    <linearGradient
       inkscape:collect="always"
       id="linearGradient3826"
       osb:paint="gradient">
      <stop
         style="stop-color:#ff0000;stop-opacity:1;"
         offset="0"
         id="stop3828" />
      <stop
         style="stop-color:#ff0000;stop-opacity:0;"
         offset="1"
         id="stop3830" />
    </linearGradient>
    <linearGradient
       inkscape:collect="always"
       xlink:href="#linearGradient5272"
       id="linearGradient5278"
       x1="90.811043"
       y1="1.6416677"
       x2="90.811043"
       y2="182.34317"
       gradientUnits="userSpaceOnUse"
       gradientTransform="translate(46.887598,464.19934)" />
    <linearGradient
       inkscape:collect="always"
       xlink:href="#linearGradient5288"
       id="linearGradient5294"
       x1="258.29199"
       y1="68.980347"
       x2="258.29199"
       y2="179.6342"
       gradientUnits="userSpaceOnUse" />
    <linearGradient
       inkscape:collect="always"
       xlink:href="#linearGradient5298"
       id="linearGradient5304" />
    <linearGradient
       inkscape:collect="always"
       xlink:href="#linearGradient5306"
       id="linearGradient5312"
       x1="388.41779"
       y1="65.459023"
       x2="388.41779"
       y2="181.62837"
       gradientUnits="userSpaceOnUse" />
    <linearGradient
       inkscape:collect="always"
       xlink:href="#linearGradient5314"
       id="linearGradient5320"
       x1="522.3623"
       y1="64.115479"
       x2="522.3623"
       y2="243.92299"
       gradientUnits="userSpaceOnUse" />
    <linearGradient
       inkscape:collect="always"
       xlink:href="#linearGradient5272"
       id="linearGradient5328"
       x1="657.87311"
       y1="65.960167"
       x2="657.87311"
       y2="255.0052"
       gradientUnits="userSpaceOnUse" />
  </defs>
  <sodipodi:namedview
     id="base"
     pagecolor="#ffffff"
     bordercolor="#666666"
     borderopacity="1.0"
     inkscape:pageopacity="0.0"
     inkscape:pageshadow="2"
     inkscape:zoom="0.7"
     inkscape:cx="95.757171"
     inkscape:cy="157.69546"
     inkscape:document-units="px"
     inkscape:current-layer="layer1"
     showgrid="false"
     borderlayer="false"
     inkscape:showpageshadow="true"
     showborder="true"
     width="270px"
     fit-margin-top="0"
     fit-margin-left="0"
     fit-margin-right="0"
     fit-margin-bottom="0"
     inkscape:window-width="1920"
     inkscape:window-height="1027"
     inkscape:window-x="0"
     inkscape:window-y="461"
     inkscape:window-maximized="1" />
  <metadata
     id="metadata7">
    <rdf:RDF>
      <cc:Work
         rdf:about="">
        <dc:format>image/svg+xml</dc:format>
        <dc:type
           rdf:resource="http://purl.org/dc/dcmitype/StillImage" />
        <dc:title></dc:title>
      </cc:Work>
    </rdf:RDF>
  </metadata>
  <g
     inkscape:label="Layer 1"
     inkscape:groupmode="layer"
     id="layer1"
     transform="translate(-43.85714,-464.36221)">
    <path
       style="opacity:0.93999999;color:#000000;fill:url(#linearGradient5278);fill-opacity:1;stroke:none;stroke-width:4.28571415;marker:none;visibility:visible;display:inline;overflow:visible;enable-background:accumulate"
       d="m 121.03045,644.64975 c -34.052397,-7.0732 -57.70953,-27.42907 -68.095808,-58.5933 -4.48011,-13.44266 -4.838246,-44.14878 -0.658145,-56.42857 4.780178,-14.04262 11.388207,-24.77489 21.611104,-35.09915 14.466594,-14.61004 30.840069,-22.9447 53.460989,-27.21351 27.1211,-5.11803 67.34076,2.00807 85.89307,15.21848 l 4.21573,3.00186 -5.35633,4.98875 c -2.94598,2.74381 -7.35247,6.84324 -9.7922,9.10985 -2.43974,2.26661 -6.24988,4.57639 -8.46701,5.13285 l -4.03113,1.01175 3.04547,-4.27696 3.04547,-4.27697 -5.29275,-5.00296 c -13.83729,-13.07967 -27.32621,-18.30828 -47.23227,-18.30828 -32.68555,0 -56.252585,16.67579 -66.238193,46.86944 -2.621012,7.9252 -3.142012,12.61145 -3.048043,27.41628 0.09724,15.31995 0.634736,19.34595 3.782994,28.3356 10.294309,29.39475 33.281472,51.08101 61.512342,58.03121 12.54434,3.0883 31.84244,3.08399 44.15918,-0.01 l 9.62839,-2.41846 0,-20.7529 0,-20.75289 -16.42857,0.8091 c -9.03572,0.44501 -16.42858,0.58772 -16.42858,0.31714 0,-0.27059 3.45326,-2.46772 7.6739,-4.88253 l 7.67389,-4.39056 26.09113,0 26.09111,0 -4.83644,4.2181 -4.83644,4.21809 -0.71429,21.80081 -0.71428,21.80082 -11.42858,2.4781 c -6.28571,1.36294 -14.32142,3.2088 -17.85714,4.1019 -20.49373,5.17654 -50.79414,6.79441 -66.42857,3.54691 l 0,0 z"
       id="path3824"
       inkscape:connector-curvature="0" />
    <path
       style="opacity:0.93999999000000001;color:#000000;fill:url(#linearGradient5294);fill-opacity:1;fill-rule:nonzero;stroke:none;stroke-width:3;marker:none;visibility:visible;display:inline;overflow:visible;enable-background:accumulate"
       d="m 248.39122,181.68623 c -37.93533,-5.98222 -59.995,-38.47627 -50.29731,-74.08828 4.01039,-14.727022 16.22144,-29.142014 30.68584,-36.224251 10.98096,-5.376635 18.45632,-7.212312 29.37043,-7.212312 16.99929,0 29.92685,4.836807 40.77859,15.257183 11.92634,11.452262 17.44463,23.12289 18.33936,38.78598 1.01745,17.81141 -4.23933,32.0805 -16.60064,45.06104 -7.96292,8.36182 -14.71631,12.54304 -25.67268,15.89473 -6.76387,2.06915 -20.95546,3.41659 -26.60359,2.52591 z m 27.45757,-10.00753 c 6.17922,-3.00146 10.8519,-8.00405 14.05025,-15.04226 7.03548,-15.48211 5.09553,-40.98388 -4.62405,-60.785633 -5.29557,-10.788712 -11.53766,-17.639458 -19.76088,-21.687735 -5.99044,-2.949082 -7.08116,-3.156709 -14.32883,-2.727582 -16.94264,1.003155 -26.64321,9.494445 -31.23259,27.339127 -2.80612,10.910923 -0.46021,30.058713 5.68926,46.436903 2.67239,7.11751 8.9937,16.74455 13.71911,20.89351 10.41043,9.14049 24.66257,11.31757 36.48773,5.57367 z"
       id="path5280"
       inkscape:connector-curvature="0"
       transform="translate(43.85714,464.36221)" />
    <path
       style="opacity:0.93999999000000001;color:#000000;fill:url(#linearGradient5312);fill-opacity:1;fill-rule:nonzero;stroke:none;stroke-width:3;marker:none;visibility:visible;display:inline;overflow:visible;enable-background:accumulate"
       d="m 385.77197,181.39146 c -8.52499,-1.37317 -13.84789,-3.11599 -21.09125,-6.90567 -7.46627,-3.9063 -16.79625,-11.77991 -19.18427,-16.1897 -9.09271,-16.79082 -11.35974,-25.05449 -10.4206,-37.98468 1.79497,-24.713037 17.10223,-44.316221 41.26674,-52.84806 9.86587,-3.483373 26.52698,-4.324001 36.11096,-1.82196 36.88328,9.628937 54.77641,48.88913 37.90397,83.16698 -6.92615,14.07109 -19.85327,24.87758 -35.81719,29.94156 -8.52452,2.70409 -21.17096,3.8653 -28.76836,2.64153 z m 23.23442,-7.6712 c 9.02319,-2.35024 14.56185,-6.90415 19.20676,-15.79188 3.48738,-6.67285 4.70359,-13.01641 4.61413,-24.06647 -0.21303,-26.31175 -11.8179,-51.406801 -27.68164,-59.86037 -5.96559,-3.178985 -20.28398,-3.231807 -27.07347,-0.09988 -6.99892,3.228543 -12.6267,8.889677 -16.29923,16.395838 -3.25397,6.650662 -3.27449,6.788331 -3.18092,21.341058 0.0823,12.8017 0.43317,15.76576 2.78471,23.52475 6.63663,21.89781 17.5134,35.2759 31.4663,38.70261 6.87316,1.68799 9.20414,1.66699 16.16336,-0.14566 z"
       id="path5282"
       inkscape:connector-curvature="0"
       transform="translate(43.85714,464.36221)" />
    <path
       style="opacity:0.93999999000000001;color:#000000;fill:url(#linearGradient5320);fill-opacity:1.0;fill-rule:nonzero;stroke:none;stroke-width:3;marker:none;visibility:visible;display:inline;overflow:visible;enable-background:accumulate"
       d="m 476.58533,240.68554 3.77178,-3.28299 0.90942,-16.66752 c 1.10977,-20.33948 3.00044,-97.77157 2.99747,-122.761306 -0.003,-23.414715 0.66064,-22.308004 -14.53949,-24.254742 l -4.94089,-0.632798 4.43581,-2.942845 4.43581,-2.942845 16.92005,-0.0043 16.92006,-0.0043 0,8.52668 c 0,4.689675 0.35752,8.747643 0.7945,9.017707 0.43697,0.270064 4.40445,-1.989947 8.81661,-5.022247 4.41217,-3.032301 11.82299,-7.792739 16.4685,-10.578753 l 8.44637,-5.065478 8.7957,0.982015 c 20.76959,2.318863 32.29849,11.683678 38.11422,30.959825 2.37228,7.862856 2.34621,24.630676 -0.0526,33.809706 -6.02934,23.07162 -24.02248,41.23416 -46.53308,46.97117 -7.53477,1.9203 -21.08838,3.51724 -29.9445,3.52818 l -6.711,0.008 -0.80109,16.92006 c -0.44059,9.30603 -0.82991,21.16305 -0.86515,26.34894 -0.0584,8.59142 0.13727,9.59229 2.20258,11.26857 1.24665,1.01183 4.65592,2.16075 7.57614,2.55315 7.89479,1.06087 8.68231,1.81977 4.54305,4.37798 -3.29907,2.03893 -4.78983,2.17091 -24.52235,2.17091 l -21.00973,0 3.77177,-3.283 z m 36.83115,-67.5335 c 4.62893,-2.8775 6.07226,-3.206 17.49226,-3.98117 13.91969,-0.94485 17.62085,-1.6988 23.75438,-4.83892 9.41905,-4.82218 14.89621,-13.49707 16.49789,-26.12985 2.55197,-20.12787 -4.22703,-39.58406 -17.65387,-50.667811 C 541.1737,77.353121 528.9368,78.103827 514.06134,89.9542 l -7.07107,5.633087 -0.54226,36.562443 c -0.54715,36.89177 -0.36437,44.13859 1.11322,44.13859 0.44552,0 3.08038,-1.41132 5.85525,-3.13628 z"
       id="path5284"
       inkscape:connector-curvature="0"
       transform="translate(43.85714,464.36221)" />
    <path
       style="opacity:0.93999999000000001;color:#000000;fill:url(#linearGradient5328);fill-opacity:1.0;fill-rule:nonzero;stroke:none;stroke-width:3;marker:none;visibility:visible;display:inline;overflow:visible;enable-background:accumulate"
       d="m 629.72381,253.61586 c -22.81525,-4.89498 -35.41168,-16.56628 -35.48972,-32.88324 -0.0345,-7.20998 1.44249,-12.16444 5.31747,-17.83736 8.78939,-12.86752 27.3319,-21.10277 52.18112,-23.17512 8.26568,-0.68933 8.33122,-0.71663 6.77241,-2.82156 -4.32056,-5.83421 -5.82187,-10.93749 -5.24432,-17.82653 l 0.56485,-6.73753 -9.09391,-0.58917 c -7.17163,-0.46463 -10.46061,-1.22873 -15.5595,-3.61478 -8.27153,-3.87072 -15.46414,-10.6171 -19.2181,-18.02583 -2.71406,-5.35639 -2.95874,-6.71817 -2.95874,-16.46712 0,-9.97174 0.20481,-11.04387 3.31759,-17.366814 4.22511,-8.582411 13.26741,-17.664874 21.73874,-21.835299 12.42466,-6.116641 15.30387,-6.510132 50.70511,-6.929697 l 32.32489,-0.383105 -7.07107,4.054261 c -6.45111,3.698802 -7.71317,4.056096 -14.39468,4.075181 -7.40107,0.02114 -8.79611,0.839246 -5.53618,3.246634 3.11269,2.29866 8.24908,9.524944 11.10819,15.627878 2.36915,5.0571 2.76175,7.190581 2.76175,15.007761 0,12.71034 -3.0556,18.79066 -16.06767,31.97299 -13.88563,14.06732 -14.00113,16.49859 -1.33544,28.10984 23.77514,21.7958 25.4824,24.43654 25.48358,39.41719 6.9e-4,8.82846 -0.27118,10.17006 -3.31299,16.34887 -6.32234,12.84249 -20.08184,23.18989 -36.58728,27.51431 -8.9878,2.3548 -31.71141,2.98368 -40.4061,1.11824 z m 49.00833,-12.04502 c 7.85191,-3.58818 12.13782,-7.83734 14.63373,-14.50824 2.52562,-6.75036 2.52711,-11.67373 0.005,-17.23046 -2.78589,-6.1383 -12.44644,-15.86804 -20.51542,-20.66237 l -6.87074,-4.08235 -8.93998,0.57919 c -21.43366,1.38862 -34.17113,7.50588 -40.13507,19.27516 -2.22282,4.38653 -2.49609,5.92551 -1.96109,11.04416 1.20851,11.56235 6.66903,18.89596 18.09422,24.30094 8.56045,4.04974 12.17155,4.63993 26.49629,4.33046 11.83997,-0.25579 13.74927,-0.55886 19.1929,-3.04649 l 1.1e-4,0 z m -9.93401,-98.46927 c 8.53056,-4.38689 12.45338,-11.35958 12.42592,-22.08666 -0.0656,-25.610639 -14.05694,-46.172978 -31.30723,-46.01049 -9.90188,0.09327 -18.36332,6.340714 -21.14005,15.608607 -1.53932,5.137803 -1.58086,17.888803 -0.0799,24.529263 3.05295,13.50679 12.62136,26.30006 21.87656,29.24968 5.96699,1.90167 12.98363,1.40486 18.22471,-1.2904 l 0,0 z"
       id="path5286"
       inkscape:connector-curvature="0"
       transform="translate(43.85714,464.36221)" />
    <path
       style="opacity:0.93999999000000001;color:#000000;fill:url(#linearGradient5304);fill-opacity:1;fill-rule:nonzero;stroke:none;stroke-width:3;marker:none;visibility:visible;display:inline;overflow:visible;enable-background:accumulate"
       d=""
       id="path5296"
       inkscape:connector-curvature="0"
       transform="translate(43.85714,464.36221)" />
  </g>
</svg>
